<svg xmlns="http://www.w3.org/2000/svg" viewBox="0 0 165.87 165.87"><defs><style>.cls-1{fill:#ee7701;}.cls-2{fill:#3b3735;}</style></defs><title>Risorsa 3</title><g id="Livello_2" data-name="Livello 2"><g id="Object"><rect class="cls-1" width="165.87" height="165.87" rx="44.02"/><ellipse class="cls-2" cx="48.65" cy="78.84" rx="6.73" ry="10.35"/><ellipse class="cls-2" cx="115.96" cy="78.84" rx="6.73" ry="10.35"/><path class="cls-2" d="M106.19,123.33c5.77,0,9.74-5.45,7.31-10.23-5-9.7-16.71-16.53-30.44-16.53s-25.5,6.83-30.44,16.53c-2.44,4.78,1.53,10.23,7.3,10.23Z"/><path class="cls-2" d="M17.8,63a4.31,4.31,0,0,0,2.8,1.72C32.51,67.56,56,64,57.86,50.24c.32-2.24-1-7.72-4.49-5.12-3.72,2.74-6.27,6.55-10.11,9.23a21.19,21.19,0,0,1-13,3.93c-3.1-.1-6.47-.72-9.51.14C18.06,59.19,16.81,61.38,17.8,63Z"/><path class="cls-2" d="M148.06,63a4.28,4.28,0,0,1-2.79,1.72C133.36,67.56,109.92,64,108,50.24c-.31-2.24,1-7.72,4.5-5.12,3.72,2.74,6.27,6.55,10.11,9.23a21.19,21.19,0,0,0,13,3.93c3.1-.1,6.47-.72,9.5.14C147.81,59.19,149.06,61.38,148.06,63Z"/></g></g></svg>