<svg xmlns="http://www.w3.org/2000/svg" viewBox="0 0 165.87 165.87"><defs><style>.cls-1{fill:#99c66b;}.cls-2{fill:#3b3735;}</style></defs><title>Risorsa 1</title><g id="Livello_2" data-name="Livello 2"><g id="Object"><rect class="cls-1" width="165.87" height="165.87" rx="44.02"/><path class="cls-2" d="M116.39,87.92a10.17,10.17,0,0,1,9.41,14c-6.44,15.81-23.45,27.1-43.41,27.1s-37-11.29-43.41-27.1a10.17,10.17,0,0,1,9.4-14Z"/><path class="cls-2" d="M26.69,61.75a2.11,2.11,0,0,1-.12-.43C25,52.4,42,50.12,47.49,51.84a23.11,23.11,0,0,1,7.88,4.33c.87.74,6.43,7.7,2.43,7.79a2.71,2.71,0,0,1-1.61-.67c-3.66-2.58-5.61-6.41-10.22-7.51A14.77,14.77,0,0,0,31.84,60C30.72,61.25,27.9,64.69,26.69,61.75Z"/><path class="cls-2" d="M139.17,61.75a2.13,2.13,0,0,0,.13-.43c1.59-8.92-15.45-11.2-20.93-9.48a23.21,23.21,0,0,0-7.88,4.33c-.86.74-6.43,7.7-2.42,7.79a2.71,2.71,0,0,0,1.61-.67c3.66-2.58,5.6-6.41,10.21-7.51A14.79,14.79,0,0,1,134,60C135.15,61.25,138,64.69,139.17,61.75Z"/></g></g></svg>